/* XPM */
static char * accounts_xpm[] = {
"48 48 101 2",
"  	c #FFFFFF",
". 	c #FAFAFA",
"+ 	c #F9F9F9",
"@ 	c #F8F8F8",
"# 	c #F7F7F7",
"$ 	c #F6F6F6",
"% 	c #F6F2F6",
"& 	c #ACAEAC",
"* 	c #C5C2C5",
"= 	c #FFFAFF",
"- 	c #E6DEE6",
"; 	c #CDCACD",
"> 	c #101010",
", 	c #292C29",
"' 	c #C5BEC5",
") 	c #625D62",
"! 	c #000000",
"~ 	c #8B858B",
"{ 	c #F5F5F5",
"] 	c #7B7D7B",
"^ 	c #4A484A",
"/ 	c #F6EEF6",
"( 	c #524C52",
"_ 	c #E6E2E6",
": 	c #4A4C4A",
"< 	c #5A5D5A",
"[ 	c #9C959C",
"} 	c #D5D6D5",
"| 	c #ACAAAC",
"1 	c #7B797B",
"2 	c #F4F4F4",
"3 	c #100C10",
"4 	c #525052",
"5 	c #838183",
"6 	c #D5CED5",
"7 	c #8B898B",
"8 	c #525552",
"9 	c #9C999C",
"0 	c #BDBABD",
"a 	c #BDB6BD",
"b 	c #FFF6FF",
"c 	c #4A444A",
"d 	c #A4A5A4",
"e 	c #9C9D9C",
"f 	c #5A595A",
"g 	c #949194",
"h 	c #181C18",
"i 	c #201C20",
"j 	c #202020",
"k 	c #000400",
"l 	c #202420",
"m 	c #948D94",
"n 	c #D5D2D5",
"o 	c #DED6DE",
"p 	c #080C08",
"q 	c #181818",
"r 	c #393839",
"s 	c #393439",
"t 	c #F3F3F3",
"u 	c #B4B2B4",
"v 	c #DEDADE",
"w 	c #8B8D8B",
"x 	c #080808",
"y 	c #414041",
"z 	c #838583",
"A 	c #313031",
"B 	c #737173",
"C 	c #313431",
"D 	c #F2F2F2",
"E 	c #EEEAEE",
"F 	c #414441",
"G 	c #413C41",
"H 	c #F1F1F1",
"I 	c #E6E6E6",
"J 	c #292829",
"K 	c #A4A1A4",
"L 	c #F0F0F0",
"M 	c #949594",
"N 	c #EFEFEF",
"O 	c #837D83",
"P 	c #EEEEEE",
"Q 	c #CDCECD",
"R 	c #EDEDED",
"S 	c #080408",
"T 	c #626562",
"U 	c #181418",
"V 	c #DEDEDE",
"W 	c #CDC6CD",
"X 	c #ECECEC",
"Y 	c #101410",
"Z 	c #736D73",
"` 	c #EEE6EE",
" .	c #6A696A",
"..	c #626162",
"+.	c #EBEBEB",
"@.	c #EAEAEA",
"#.	c #292429",
"$.	c #7B757B",
"%.	c #E9E9E9",
"&.	c #E8E8E8",
"*.	c #E7E7E7",
"                                                                                                ",
"                                                                                                ",
"    . . . . . . . . . . . . . . . . . . . . . . . . . . . . . . . . . . . . . . . . . . . . . . ",
"    . . . . . . . . . . . . . . . . . . . . . . . . . . . . . . . . . . . . . . . . . . . . . . ",
"    + + + + + + + + + + + + + + + + + + + + + + + + + + + + + + + + + + + + + + + + + + + + + + ",
"    + + + + + + + + + + + + + + + + + + + + + + + + + + + + + + + + + + + + + + + + + + + + + + ",
"    @ @ @ @ @ @ @ @ @ @ @ @ @ @ @ @ @ @ @ @ @ @ @ @ @ @ @ @ @ @ @ @ @ @ @ @ @ @ @ @ @ @ @ @ @ @ ",
"    @ @ @ @ @ @ @ @ @ @ @ @ @ @ @ @ @ @ @ @ @ @ @ @ @ @ @ @ @ @ @ @ @ @ @ @ @ @ @ @ @ @ @ @ @ @ ",
"    # # # # # # # # # # # # # # # # # # # # # # # # # # # # # # # # # # # # # # # # # # # # # # ",
"    # # #                                                                                 # # # ",
"    # # #                                                                                 # # # ",
"    $ $ $         % & * =                                                 - ; =           $ $ $ ",
"    $ $ $         > ; , '                                               ) ! ! ! ~         $ $ $ ",
"    { { {       ] ^   / %                                             ( !     _ :         { { { ",
"    { { {       > < [ }                                             | ! 1       *         { { { ",
"    2 2 2       3 4 5 6                     7 ) < ) 8 9 0 a       b c ! d | e 6           2 2 2 ",
"    2 2 2       < f                     g h ! ! i j > ! k l       _ ! ! f 8 c 9           2 2 2 ",
"    2 2 2         ! m | n             e ! ! i ;       o p q       _ ! ! r s i ~           2 2 2 ",
"    t t t           g u             v j ! ! w           : x       % y ! z 0 & n           t t t ",
"    t t t                           < ! ! A             m B         u ! C                 t t t ",
"    D D D                         E 3 ! ! C               =           F ! u     '         D D D ",
"    D D D                         v ! ! !                               G ! ! x ]         D D D ",
"    H H H                     $ = j ! ! ! n E _ I _ _ I                   - _             H H H ",
"    H H H                     | J ! ! ! ! ! J j i j q A E                                 H H H ",
"    H H H                     n K k ! ! ! 9 7 ~ 7 z z w b                                 H H H ",
"    L L L                         i ! ! !                                                 L L L ",
"    L L L                     M ! ! ! ! ! ! ! ! ! ! ! w                                   L L L ",
"    N N N                     n w ! ! ! ! g ] O ] O B n                                   N N N ",
"    N N N                         g ! ! !                                                 N N N ",
"    P P P                         v ! ! ! 4                                               P P P ",
"    P P P         n s x q A Q     = ^ ! ! :                                               P P P ",
"    R R R       v S F     7 B       B ! ! ! 9                                             R R R ",
"    R R R       T ! 0       }       % J ! ! U V           F *                             R R R ",
"    R R R     n p i % V 6               > ! ! ! 5 % _ W U S                               R R R ",
"    X X X     T ! ! > p ! *               Y > k ! ! ! ! 3             d c r )             X X X ",
"    X X X     7 ! > O Z ( `                 W u  ...5 6             _ y     m             X X X ",
"    +.+.+.    n i k g & e P                                         1 h O e               +.+.+.",
"    +.+.+.      r ! K                                               ] q 1 [               +.+.+.",
"    @.@.@.        ! U ; E n n                                       d A / %               @.@.@.",
"    @.@.@.        = J #.J  .&                                       $ c Z o ;             @.@.@.",
"    @.@.@.          % * 0                                             _ $.| ;             @.@.@.",
"    %.%.%.                                                                                %.%.%.",
"    %.%.%.%.%.%.%.%.%.%.%.%.%.%.%.%.%.%.%.%.%.%.%.%.%.%.%.%.%.%.%.%.%.%.%.%.%.%.%.%.%.%.%.%.%.%.",
"    &.&.&.&.&.&.&.&.&.&.&.&.&.&.&.&.&.&.&.&.&.&.&.&.&.&.&.&.&.&.&.&.&.&.&.&.&.&.&.&.&.&.&.&.&.&.",
"    &.&.&.&.&.&.&.&.&.&.&.&.&.&.&.&.&.&.&.&.&.&.&.&.&.&.&.&.&.&.&.&.&.&.&.&.&.&.&.&.&.&.&.&.&.&.",
"    *.*.*.*.*.*.*.*.*.*.*.*.*.*.*.*.*.*.*.*.*.*.*.*.*.*.*.*.*.*.*.*.*.*.*.*.*.*.*.*.*.*.*.*.*.*.",
"    *.*.*.*.*.*.*.*.*.*.*.*.*.*.*.*.*.*.*.*.*.*.*.*.*.*.*.*.*.*.*.*.*.*.*.*.*.*.*.*.*.*.*.*.*.*.",
"    *.*.*.*.*.*.*.*.*.*.*.*.*.*.*.*.*.*.*.*.*.*.*.*.*.*.*.*.*.*.*.*.*.*.*.*.*.*.*.*.*.*.*.*.*.*."};
