/* XPM */
static char * dial_in_xpm[] = {
"48 48 416 2",
"  	c #FFFFFF",
". 	c #FAFAFA",
"+ 	c #F9F9F9",
"@ 	c #F8F8F8",
"# 	c #F7F7F7",
"$ 	c #E1E1EA",
"% 	c #F0CDFC",
"& 	c #C5C2D5",
"* 	c #EEEEEE",
"= 	c #F5F5F5",
"- 	c #F6F6F7",
"; 	c #B1B0FC",
"> 	c #C6C7E6",
", 	c #FFE6FF",
"' 	c #D3D3D3",
") 	c #ECECEC",
"! 	c #F6F6F6",
"~ 	c #F6F4F6",
"{ 	c #DEDEE7",
"] 	c #EEE2F8",
"^ 	c #EAEAED",
"/ 	c #F3F3F5",
"( 	c #F1E6F8",
"_ 	c #A9AAFE",
": 	c #CECFFF",
"< 	c #B6B6B6",
"[ 	c #E2E2E2",
"} 	c #F7F3F7",
"| 	c #A9A7C3",
"1 	c #F697FF",
"2 	c #A49DBD",
"3 	c #E393FD",
"4 	c #C1C1CF",
"5 	c #E7E7E9",
"6 	c #F3F3F4",
"7 	c #F4F4F6",
"8 	c #A7A8C9",
"9 	c #F6F6FF",
"0 	c #9894F6",
"a 	c #B3B3B3",
"b 	c #E1E1E1",
"c 	c #ACA7BE",
"d 	c #FFEEFF",
"e 	c #FFF2FF",
"f 	c #FFEAFF",
"g 	c #FFDEFF",
"h 	c #9694BA",
"i 	c #E7D8EF",
"j 	c #EAEAEB",
"k 	c #F3F3F3",
"l 	c #D0D1E1",
"m 	c #FEDFFE",
"n 	c #FFFAFF",
"o 	c #FFF3FF",
"p 	c #9C9CA3",
"q 	c #C3C3C3",
"r 	c #E8E8E8",
"s 	c #C2C3D2",
"t 	c #FFE3FF",
"u 	c #EEEAFF",
"v 	c #DEDEF6",
"w 	c #A4A5CD",
"x 	c #A4A3FB",
"y 	c #D4D3DC",
"z 	c #F6A5FD",
"A 	c #9092A6",
"B 	c #B0AFB0",
"C 	c #D8D8D8",
"D 	c #F1F1F1",
"E 	c #F4F4F4",
"F 	c #EEEEF0",
"G 	c #F6D1FD",
"H 	c #FFC2FF",
"I 	c #FFE2FF",
"J 	c #FFD6FF",
"K 	c #FEC9FE",
"L 	c #A4A1CD",
"M 	c #BAB4FE",
"N 	c #9D9EA3",
"O 	c #C5C5C5",
"P 	c #F5C4F9",
"Q 	c #8F99A7",
"R 	c #417941",
"S 	c #52855A",
"T 	c #E6E6FF",
"U 	c #EEE6FF",
"V 	c #FFF6FF",
"W 	c #ACAED5",
"X 	c #9898F0",
"Y 	c #AFAFAF",
"Z 	c #D9D9D9",
"` 	c #F0F0F0",
" .	c #B0ABFC",
"..	c #D5C2D5",
"+.	c #206D08",
"@.	c #109500",
"#.	c #207508",
"$.	c #C5C6C5",
"%.	c #B4BEC5",
"&.	c #9F9BB6",
"*.	c #BFBEC1",
"=.	c #E4E4E4",
"-.	c #D3CEDE",
";.	c #F59DFE",
">.	c #4A8539",
",.	c #207500",
"'.	c #298500",
").	c #298D00",
"!.	c #188900",
"~.	c #298D08",
"{.	c #6A9962",
"].	c #E6DEF6",
"^.	c #DEDAEE",
"/.	c #8E90FC",
"(.	c #BCBDBE",
"_.	c #EDEEF4",
":.	c #FCCEFC",
"<.	c #739973",
"[.	c #9CCA10",
"}.	c #299100",
"|.	c #31CE08",
"1.	c #39A100",
"2.	c #A4DA08",
"3.	c #39AE00",
"4.	c #31DA00",
"5.	c #399910",
"6.	c #D5CED5",
"7.	c #B4BAFF",
"8.	c #9492B4",
"9.	c #B9B9BB",
"0.	c #F2F2F2",
"a.	c #F7CDF7",
"b.	c #9196A8",
"c.	c #62E239",
"d.	c #39B200",
"e.	c #4AEA10",
"f.	c #41BA10",
"g.	c #4AE610",
"h.	c #4ABA10",
"i.	c #52EE18",
"j.	c #4AC218",
"k.	c #4AF608",
"l.	c #29A100",
"m.	c #DE8DF6",
"n.	c #EEEEF6",
"o.	c #CDCEEE",
"p.	c #9491E6",
"q.	c #BABABA",
"r.	c #F3F2F3",
"s.	c #B1A9C7",
"t.	c #EEE2E6",
"u.	c #62DA29",
"v.	c #BDFF20",
"w.	c #62DE29",
"x.	c #CDFF94",
"y.	c #C5FF29",
"z.	c #5AD220",
"A.	c #C5FF8B",
"B.	c #52D618",
"C.	c #B4D239",
"D.	c #C5C2FF",
"E.	c #FECDFE",
"F.	c #9B9CA1",
"G.	c #C7C7C7",
"H.	c #CFCCDA",
"I.	c #9391FE",
"J.	c #8BDA6A",
"K.	c #E6FF4A",
"L.	c #83FF4A",
"M.	c #8BFF5A",
"N.	c #F6FF62",
"O.	c #83FF52",
"P.	c #73FF41",
"Q.	c #6AEE31",
"R.	c #5AFF20",
"S.	c #839D94",
"T.	c #89879E",
"U.	c #ADADAD",
"V.	c #D7D7D7",
"W.	c #EDEDED",
"X.	c #EEEEEF",
"Y.	c #EFCBFA",
"Z.	c #ACAAFF",
"`.	c #94D67B",
" +	c #FFFFE6",
".+	c #FFFF94",
"++	c #CDFFAC",
"@+	c #B4FF94",
"#+	c #EEFFB4",
"$+	c #62BE4A",
"%+	c #9A9BC8",
"&+	c #C69BCA",
"*+	c #C2C2C2",
"=+	c #F5D5F5",
"-+	c #9690AC",
";+	c #E6DAFF",
">+	c #9CC29C",
",+	c #D5F6BD",
"'+	c #F6FFEE",
")+	c #A4F67B",
"!+	c #8BDAF6",
"~+	c #D5D6EE",
"{+	c #8C89A2",
"]+	c #ABACAD",
"^+	c #D5D5D5",
"/+	c #F1F0F1",
"(+	c #ADA9BC",
"_+	c #FFCAFF",
":+	c #D5D6FF",
"<+	c #ACBEB4",
"[+	c #BDE2FF",
"}+	c #B4E2FF",
"|+	c #94CEFF",
"1+	c #DFEEFE",
"2+	c #96C3F9",
"3+	c #C9E3F3",
"4+	c #EAEAEA",
"5+	c #EFEFEF",
"6+	c #DDDDE3",
"7+	c #E78EFD",
"8+	c #B4B2D5",
"9+	c #D5D6F6",
"0+	c #E6E2FF",
"a+	c #C5C6DE",
"b+	c #BDD2BD",
"c+	c #9CB2AC",
"d+	c #ACE2FF",
"e+	c #DEFFFF",
"f+	c #CDFAFF",
"g+	c #94D6FF",
"h+	c #DEEAFF",
"i+	c #66A8EE",
"j+	c #C2CFF4",
"k+	c #EFEEEF",
"l+	c #EFD2F8",
"m+	c #948DB4",
"n+	c #FFBEFF",
"o+	c #FFDAFF",
"p+	c #8BAA9C",
"q+	c #9CD6FF",
"r+	c #B4EAFF",
"s+	c #73C2FF",
"t+	c #B4D6FF",
"u+	c #679FFC",
"v+	c #CDD2E6",
"w+	c #F2EDF2",
"x+	c #8684A2",
"y+	c #FFA1FF",
"z+	c #BDBAE6",
"A+	c #C5C6E6",
"B+	c #83BEFF",
"C+	c #D5F2FF",
"D+	c #F6FAFF",
"E+	c #CDF6FF",
"F+	c #94D2FF",
"G+	c #73EEFF",
"H+	c #52AEFF",
"I+	c #3989FF",
"J+	c #91AFCE",
"K+	c #DADADA",
"L+	c #C2C1CE",
"M+	c #DEA5FF",
"N+	c #ACAEFF",
"O+	c #BDBAFF",
"P+	c #FFCEFF",
"Q+	c #BDD6FF",
"R+	c #D5E6FF",
"S+	c #9CDAFF",
"T+	c #EEFFFF",
"U+	c #62B6FF",
"V+	c #3179FF",
"W+	c #A7B4FC",
"X+	c #E6E6E6",
"Y+	c #9291FC",
"Z+	c #8381BD",
"`+	c #BDBEE6",
" @	c #D5D2EE",
".@	c #CDDAF6",
"+@	c #8BEAFF",
"@@	c #6AAEF6",
"#@	c #DEF6FF",
"$@	c #F6FFFF",
"%@	c #8BD2FF",
"&@	c #83FAFF",
"*@	c #6ABAFF",
"=@	c #5ADEFF",
"-@	c #205DFF",
";@	c #2669E6",
">@	c #DEDEDE",
",@	c #7670A6",
"'@	c #F6C2FF",
")@	c #9C99CD",
"!@	c #B4B6FF",
"~@	c #7BAEFF",
"{@	c #41BEFF",
"]@	c #5AB6FF",
"^@	c #6AB6FF",
"/@	c #C5E2FF",
"(@	c #BDD2FF",
"_@	c #1044FF",
":@	c #2A9DFF",
"<@	c #ABABAB",
"[@	c #6A65FF",
"}@	c #8B8DCD",
"|@	c #FF99FF",
"1@	c #A4A1D5",
"2@	c #BDBADE",
"3@	c #E6E2F6",
"4@	c #BDCEEE",
"5@	c #D5A5FF",
"6@	c #2975E6",
"7@	c #3185FF",
"8@	c #419DFF",
"9@	c #5AA5FF",
"0@	c #4A85EE",
"a@	c #2055FF",
"b@	c #3A85EE",
"c@	c #A6A6A6",
"d@	c #D6D6D6",
"e@	c #6F719C",
"f@	c #D59DFF",
"g@	c #9491FF",
"h@	c #7BAAFF",
"i@	c #2085FF",
"j@	c #185DFF",
"k@	c #C5CEFF",
"l@	c #ACDAFF",
"m@	c #317DFF",
"n@	c #8B99FF",
"o@	c #399DFF",
"p@	c #1040D5",
"q@	c #B0C1FE",
"r@	c #A7A7A7",
"s@	c #C0BFC9",
"t@	c #7F7E99",
"u@	c #D56DFF",
"v@	c #8B89BD",
"w@	c #F6E2FF",
"x@	c #0B42CE",
"y@	c #4175FF",
"z@	c #9CC6F6",
"A@	c #CDF2FF",
"B@	c #C5E6FF",
"C@	c #4A7DFF",
"D@	c #6A95EE",
"E@	c #3971DE",
"F@	c #1848FF",
"G@	c #6595CE",
"H@	c #ACACAC",
"I@	c #E3E3E3",
"J@	c #DCC2E0",
"K@	c #8F91A3",
"L@	c #D1A3F5",
"M@	c #837DB4",
"N@	c #CDCAFF",
"O@	c #818AAC",
"P@	c #47A3FE",
"Q@	c #6291FF",
"R@	c #94C2FF",
"S@	c #659BFF",
"T@	c #8B9DE0",
"U@	c #B9B9B9",
"V@	c #EBEBEB",
"W@	c #E9E9E9",
"X@	c #D2D2D2",
"Y@	c #B1B2BA",
"Z@	c #9591E7",
"`@	c #7B7DA2",
" #	c #A4A5C5",
".#	c #868599",
"+#	c #86A3C1",
"@#	c #76DBFF",
"##	c #DEFAFF",
"$#	c #9CCEFF",
"%#	c #78A5F9",
"&#	c #A4A4A4",
"*#	c #CBCBCB",
"=#	c #E5E5E5",
"-#	c #E7E7E7",
";#	c #CCCCCD",
">#	c #D4ACDF",
",#	c #918EA2",
"'#	c #EEBEFE",
")#	c #A4A1C5",
"!#	c #FFBAFF",
"~#	c #EEC1FC",
"{#	c #999BA0",
"]#	c #B9BABB",
"^#	c #9ABBF6",
"/#	c #FEFEFE",
"(#	c #BDDAFF",
"_#	c #A4D6FF",
":#	c #C7CBFA",
"<#	c #979DA4",
"[#	c #BCBCBC",
"}#	c #DCDCDC",
"|#	c #CACACA",
"1#	c #B8B8B8",
"2#	c #A5A5A5",
"3#	c #D7D8DA",
"4#	c #A5BDD3",
"5#	c #78A5FA",
"6#	c #4D81E7",
"7#	c #5281FF",
"8#	c #4179E6",
"9#	c #679CFE",
"0#	c #87B0E0",
"a#	c #85A0F7",
"b#	c #989EA4",
"c#	c #B7B7B7",
"d#	c #DDDDDD",
"e#	c #D4D4D4",
"f#	c #DBDBDB",
"g#	c #C8C8C8",
"h#	c #A9A9A9",
"i#	c #B2B2B2",
"                                                                                                ",
"                                                                                                ",
"    . . . . . . . . . . . . . . . . . . . . . . . . . . . . . . . . . . . . . . . . . . . . . . ",
"    . . . . . . . . . . . . . . . . . . . . . . . . . . . . . . . . . . . . . . . . . . . . . . ",
"    + + + + + + + + + + + + + + + + + + + + + + + + + + + + + + + + + + + + + + + + + + + + + + ",
"    + + + + + + + + + + + + + + + + + + + + + + + + + + + + + + + + + + + + + + + + + + + + + + ",
"    @ @ @ @ @ @ @ @ @ @ @ @ @ @ @ @ @ @ @ @ @ @ @ @ @ @ @ @ @ @ @ @ @ @ @ @ @ @ @ @ @ @ @ @ @ @ ",
"    @ @ @ @ @ @ @ @ @ @ @ @ @ @ @ @ @ @ @ @ @ @ @ @ @ @ @ @ @ @ @ @ @ @ @ @ @ @ @ @ @ @ @ @ @ @ ",
"    # # # # # # # # # # # # # # # # # # # # # # # # # # # # # # # # # # # # # # # # # # # # # # ",
"    # # # # # # # # # # # # # # # # # # # # # # # # # # # # # # $ % & * = # # # # # # # # # # # ",
"    # # # # # # # # # # # # # # # # # # # # - - # # # # # # # - ; > , ' ) # # # # # # # # # # # ",
"    ! ! ! ! ! ! ! ! ! ! ! ! ! ! ! ! ! ! ! ~ { ] ^ / ! ! ! ! ! ( _   : < [ ! ! ! ! ! ! ! ! ! ! ! ",
"    ! ! ! ! ! ! ! ! ! ! ! ! ! ! ! ! ! ! } | 1 2 3 4 5 6 ! ! 7 8   9 0 a b ! ! ! ! ! ! ! ! ! ! ! ",
"    = = = = = = = = = = = = = = = = = ! c d e   f g h i j k l m n o p q r = = = = = = = = = = = ",
"    = = = = = = = = = = = = = = = = = s t u   v       w x y z v   A B C D = = = = = = = = = = = ",
"    E E E E E E E E E E E E E E E E F G H   I   I   e   J K L   M N O r E E E E E E E E E E E E ",
"    E E E E E E E E E E E E E E E E P Q R S e v   T   U   9 V W X Y Z ` E E E E E E E E E E E E ",
"    E E E E E E E E E E E E E E E =  ...+.@.#.$.%.  ,   f       &.*.=.k E E E E E E E E E E E E ",
"    k k k k k k k k k k k k k k k -.;.>.,.'.).!.~.{.d ].  ^.  n /.(.=.k k k k k k k k k k k k k ",
"    k k k k k k k k k k k k k k _.:.<.[.}.|.1.2.3.4.5.6.7.      8.9.[ 0.k k k k k k k k k k k k ",
"    0.0.0.0.0.0.0.0.0.0.0.0.0.0.a.b.c.d.e.f.g.h.i.j.k.l.m.n.  o.p.q.[ D 0.0.0.0.0.0.0.0.0.0.0.0.",
"    0.0.0.0.0.0.0.0.0.0.0.0.0.r.s.t.u.v.w.x.w.y.z.A.B.C.D.    E.F.G.r 0.0.0.0.0.0.0.0.0.0.0.0.0.",
"    D D D D D D D D D D D D D H.I.J.K.L.M.M.N.O.P.Q.R.S.      T.U.V.W.D D D D D D D D D D D D D ",
"    D D D D D D D D D D D D X.Y.Z.  `. +.+  ++  @+#+$+e n   %+&+*+=.` D D D D D D D D D D D D D ",
"    D D D D D D D D D D D D =+-+  ;+d >+  ,+  '+  )+!+].  ~+{+]+^+W.D D D D D D D D D D D D D D ",
"    ` ` ` ` ` ` ` ` ` ` ` /+(+_+:+  I   <+  f     V H   [+  }+  |+1+2+3+4+5+` ` ` ` ` ` ` ` ` ` ",
"    ` ` ` ` ` ` ` ` ` ` ` 6+7+8+n 9+  0+  a+d b+  c+  d+  e+  f+  g+h+i+j+r 5+` ` ` ` ` ` ` ` ` ",
"    5+5+5+5+5+5+5+5+5+5+k+l+m+e n+  g   g   o+V p+  q+  n       r+  s+t+u+v+r 5+5+5+5+5+5+5+5+5+",
"    5+5+5+5+5+5+5+5+5+5+w+x+y+z+f A+  v   v   u   B+  C+  D+  E+  F+G+H+I+J+K+) 5+5+5+5+5+5+5+5+",
"    * * * * * * * * * * L+M+N+, O+d P+  g   I   Q+R+f   V   d   S+T+U+[+V+W+G.X+* * * * * * * * ",
"    * * * * * * * * * * Y+Z+o+W f `+e  @  ].  .@+@@@  #@  d+$@%@&@*@=@H+-@;@< >@* * * * * * * * ",
"    W.W.W.W.W.W.W.W.W.W.,@'@)@g !@e D.n o+  g   ~@{@]@  V   }+T+^@/@H+(@_@:@<@C W.W.W.W.W.W.W.W.",
"    W.W.W.W.W.W.W.W.W.W.[@}@|@1@I 2@e A+  3@  4@5@6@7@H+  C+  |+=@8@9@0@a@b@c@d@W.W.W.W.W.W.W.W.",
"    W.W.W.W.W.W.W.W.W.W.e@f@g@J N+f H n :+  P+  h@i@j@k@l@  V   m@n@~@o@p@q@r@d@W.W.W.W.W.W.W.W.",
"    ) ) ) ) ) ) ) ) ) ) s@t@u@v@g z+e A+  9+n 3@w@x@y@z@  A@  B@C@D@U E@F@G@H@C ) ) ) ) ) ) ) ) ",
"    ) ) ) ) ) ) ) ) ) ) I@J@K@L@M@g N@  J   :+  O@P@Q@  e   n   g   R@0+S@T@U@>@) ) ) ) ) ) ) ) ",
"    V@V@V@V@V@V@V@V@V@V@W@[ X@Y@Z@`@|@A+  o.   #.#+#@#[+  $@      ##  $#%#&#*#=#V@V@V@V@V@V@V@V@",
"    V@V@V@V@V@V@V@V@V@V@V@4+-#>@;#>#,#'#)#e !#~#{#]#^#/#(#  I   R+  _#:#<#[#}#4+V@V@V@V@V@V@V@V@",
"    4+4+4+4+4+4+4+4+4+4+4+4+4+W@=.Z |#1#H@2#&#r@1#' 3#4#5#6#7#8#9#0#a#b#c#^+X+4+4+4+4+4+4+4+4+4+",
"    4+4+4+4+4+4+4+4+4+4+4+4+4+4+4+r =.d#V.' ' e#f#=.-#}#g#c#<@2#&#h#i#*+d@=.4+4+4+4+4+4+4+4+4+4+",
"    4+4+4+4+4+4+4+4+4+4+4+4+4+4+4+4+4+4+4+4+4+4+4+4+4+r I@f#d@' ' ^+Z b X+4+4+4+4+4+4+4+4+4+4+4+",
"    W@W@W@W@W@W@W@W@W@W@W@W@W@W@W@W@W@W@W@W@W@W@W@W@W@W@W@W@W@W@W@W@W@W@W@W@W@W@W@W@W@W@W@W@W@W@",
"    W@W@W@W@W@W@W@W@W@W@W@W@W@W@W@W@W@W@W@W@W@W@W@W@W@W@W@W@W@W@W@W@W@W@W@W@W@W@W@W@W@W@W@W@W@W@",
"    r r r r r r r r r r r r r r r r r r r r r r r r r r r r r r r r r r r r r r r r r r r r r r ",
"    r r r r r r r r r r r r r r r r r r r r r r r r r r r r r r r r r r r r r r r r r r r r r r ",
"    -#-#-#-#-#-#-#-#-#-#-#-#-#-#-#-#-#-#-#-#-#-#-#-#-#-#-#-#-#-#-#-#-#-#-#-#-#-#-#-#-#-#-#-#-#-#",
"    -#-#-#-#-#-#-#-#-#-#-#-#-#-#-#-#-#-#-#-#-#-#-#-#-#-#-#-#-#-#-#-#-#-#-#-#-#-#-#-#-#-#-#-#-#-#",
"    -#-#-#-#-#-#-#-#-#-#-#-#-#-#-#-#-#-#-#-#-#-#-#-#-#-#-#-#-#-#-#-#-#-#-#-#-#-#-#-#-#-#-#-#-#-#"};
