/* XPM */
static char * transfer_xpm[] = {
"48 48 190 2",
"  	c #FFFFFF",
". 	c #FAFAFA",
"+ 	c #F9F9F9",
"@ 	c #F8F8F8",
"# 	c #F7F7F7",
"$ 	c #D5D2D5",
"% 	c #EEEAEE",
"& 	c #E6E6E6",
"* 	c #EEE6EE",
"= 	c #E6E2E6",
"- 	c #CDCECD",
"; 	c #DEDEDE",
"> 	c #EEEEEE",
", 	c #F6F6F6",
"' 	c #DEE2E6",
") 	c #DEDAE6",
"! 	c #E6EAEE",
"~ 	c #D5D6DE",
"{ 	c #D5DEDE",
"] 	c #DEDADE",
"^ 	c #D5DADE",
"/ 	c #D5D6D5",
"( 	c #EEF2F6",
"_ 	c #E6E2EE",
": 	c #E6E6EE",
"< 	c #F6D2D5",
"[ 	c #F6DEE6",
"} 	c #FFE6EE",
"| 	c #F6DEDE",
"1 	c #F6EAEE",
"2 	c #FFDEE6",
"3 	c #F6E2E6",
"4 	c #F6EEF6",
"5 	c #F6E6EE",
"6 	c #FFE2E6",
"7 	c #FFD2D5",
"8 	c #FFFAFF",
"9 	c #E6CACD",
"0 	c #FFE6E6",
"a 	c #FFDEDE",
"b 	c #FFE2DE",
"c 	c #EEE2E6",
"d 	c #F5F5F5",
"e 	c #EEE6E6",
"f 	c #FFC252",
"g 	c #FFE2BD",
"h 	c #FFCAC5",
"i 	c #FFDAD5",
"j 	c #FFBEB4",
"k 	c #FFE2D5",
"l 	c #FFDACD",
"m 	c #FFDED5",
"n 	c #FFD2CD",
"o 	c #FFCED5",
"p 	c #FFDA73",
"q 	c #FFC652",
"r 	c #FFCE5A",
"s 	c #FFCA52",
"t 	c #FFCA5A",
"u 	c #FFD252",
"v 	c #FFC25A",
"w 	c #FFF2C5",
"x 	c #FFFFEE",
"y 	c #FFFAE6",
"z 	c #FFFFE6",
"A 	c #FFFAF6",
"B 	c #FFDE83",
"C 	c #EECACD",
"D 	c #F4F4F4",
"E 	c #FFBE5A",
"F 	c #FFEEC5",
"G 	c #FFF6E6",
"H 	c #FFF2DE",
"I 	c #FFF6DE",
"J 	c #FFC262",
"K 	c #FFD26A",
"L 	c #FFCE6A",
"M 	c #FFCE62",
"N 	c #FFD273",
"O 	c #FFD67B",
"P 	c #FFD262",
"Q 	c #EECED5",
"R 	c #FFBE52",
"S 	c #FFE6A4",
"T 	c #FFF6C5",
"U 	c #FFF2BD",
"V 	c #FFF6BD",
"W 	c #FFEABD",
"X 	c #FFFAC5",
"Y 	c #FFD673",
"Z 	c #FFDE9C",
"` 	c #FFEAB4",
" .	c #FFD662",
"..	c #E6CECD",
"+.	c #F3F3F3",
"@.	c #FFE2C5",
"#.	c #FFBACD",
"$.	c #FFB2BD",
"%.	c #FFC6D5",
"&.	c #FFCEDE",
"*.	c #FFAEBD",
"=.	c #FF95A4",
"-.	c #FFEADE",
";.	c #FFF2CD",
">.	c #FFCADE",
",.	c #FFAAB4",
"'.	c #FFA1AC",
").	c #FF99AC",
"!.	c #FFFFF6",
"~.	c #FFD25A",
"{.	c #EECECD",
"].	c #FFBA52",
"^.	c #FFFFDE",
"/.	c #FFFAD5",
"(.	c #FFFFD5",
"_.	c #FFFADE",
":.	c #FFEAC5",
"<.	c #FFEECD",
"[.	c #FFDE8B",
"}.	c #FFE2AC",
"|.	c #FFF2D5",
"1.	c #FFDE7B",
"2.	c #F2F2F2",
"3.	c #FFE28B",
"4.	c #FFDA83",
"5.	c #FFD683",
"6.	c #FFD66A",
"7.	c #F1F1F1",
"8.	c #FFDA7B",
"9.	c #FFE6FF",
"0.	c #FFAABD",
"a.	c #FFD6E6",
"b.	c #FFDAEE",
"c.	c #FFE29C",
"d.	c #FFD27B",
"e.	c #FFE6AC",
"f.	c #FFEED5",
"g.	c #FFEACD",
"h.	c #FFE2A4",
"i.	c #F0F0F0",
"j.	c #FFEAA4",
"k.	c #E6CAC5",
"l.	c #FFDA8B",
"m.	c #EFEFEF",
"n.	c #FFE2CD",
"o.	c #FFDEBD",
"p.	c #FFDABD",
"q.	c #FFDEC5",
"r.	c #FFE6C5",
"s.	c #FFD2C5",
"t.	c #FFCEBD",
"u.	c #FFC6B4",
"v.	c #FFCABD",
"w.	c #FFCAB4",
"x.	c #FFEAD5",
"y.	c #FFDAC5",
"z.	c #FFD2BD",
"A.	c #FFC2AC",
"B.	c #FFD6C5",
"C.	c #FFC2B4",
"D.	c #FFBEAC",
"E.	c #EDEDED",
"F.	c #FFBA4A",
"G.	c #FFE294",
"H.	c #FFCE52",
"I.	c #FFF6D5",
"J.	c #FFEAFF",
"K.	c #FFE2F6",
"L.	c #FFE6F6",
"M.	c #FFE2EE",
"N.	c #FFDEEE",
"O.	c #FFEEFF",
"P.	c #FFEEF6",
"Q.	c #ECECEC",
"R.	c #FFDAB4",
"S.	c #FFD6B4",
"T.	c #FFD2B4",
"U.	c #FFDE94",
"V.	c #FFDA94",
"W.	c #EBEBEB",
"X.	c #EAEAEA",
"Y.	c #FFCA8B",
"Z.	c #FFD294",
"`.	c #FFD69C",
" +	c #FFD283",
".+	c #E6D6D5",
"++	c #E6DEE6",
"@+	c #E9E9E9",
"#+	c #E8E8E8",
"$+	c #E7E7E7",
"                                                                                                ",
"                                                                                                ",
"    . . . . . . . . . . . . . . . . . . . . . . . . . . . . . . . . . . . . . . . . . . . . . . ",
"    . . . . . . . . . . . . . . . . . . . . . . . . . . . . . . . . . . . . . . . . . . . . . . ",
"    + + + + + + + + + + + + + + + + + + + + + + + + + + + + + + + + + + + + + + + + + + + + + + ",
"    + + + + + + + + + + + + + + + + + + + + + + + + + + + + + + + + + + + + + + + + + + + + + + ",
"    @ @ @ @ @ @ @ @ @ @ @ @ @ @ @ @ @ @ @ @ @ @ @ @ @ @ @ @ @ @ @ @ @ @ @ @ @ @ @ @ @ @ @ @ @ @ ",
"    @ @ @ @ @ @ @ @ @ @ @ @ @ @ @ @ @ @ @ @ @ @ @ @ @ @ @ @ @ @ @ @ @ @ @ @ @ @ @ @ @ @ @ @ @ @ ",
"    # # # # # # # # # # # # # # # # # # # # # # # # # # # # # # # # # # # # # # # # # # # # # # ",
"    # $ % % & % * % & % * % & % * * = * & * & * & * & * & * & * & * & * & * & * & * & * & % - # ",
"    # % = = & & * & * ; * & = & = & % >                                                     % # ",
"    , % ' ) ! = ; ~ { ] ^ ] / & ^ (   _                                                     : , ",
"    , = < [ } | } 1 2 3 4 5 } 3 6 7 8 9 0 a 6 b 6 b 6 b 6 b 6 b 6 b 6 b 6 b 6 b 6 b 6 b 6 b c , ",
"    d e f g h i j k l h l k m h n k o p q r s r t r s r t r s r t r s r t r s r t r s r t u 9 d ",
"    d = v w x y x y z z z y y z x y z A                                                   B C d ",
"    D * E F G G H G I G I G I G H G H I H G H I H G H I H G H G H G H G H G H I H G H I G B 9 D ",
"    D = J K L M L M L M M M L M K N O N O N O N O N O N O L K M L M L M O N O N O N O N O P Q D ",
"    D * R S w T U U V W V T X T S N N Y N Y N Y N Y N Y L Z ` X U T T ` L Y N Y N Y N Y N  ...D ",
"    +.= R @.#.$.%.&.$.%.*.*.=.%.-.K K L N N Y N O N Y N M ;.>.,.'.$.).!.t L K L N L K L N ~.{.+.",
"    +.* ].` ^.^././././.(.^.^._.;.F :.F <.[.N O N O N O L }._.^.^.^.^.|.W F :.F :.F :.F <.1...+.",
"    2.= R F                               Z K N Y N O N L :.                              3.C 2.",
"    2.* E 4.4.4.5.4.5.4.5.4.5.4.5.4.5.4.4.O N O N O N O N O O 5.O 5.O 5.O 4.5.4.5.4.5.4.4.6...2.",
"    7.= J N N K N K N K N K N K N K N K N N Y N O N Y N N N 8.B B 8.B 8.O K N K N K N K N ~.{.7.",
"    7.* v O N O N O N O N O N O N O N O N O N O N O N O M ;.9.0.a.b.%.a.  c.M K L K L K L P ..7.",
"    7.= J Y d.N Y N O N Y N O N Y N O N Y N O N Y N O N L e.f.|.g.g.f.<.H e.Z Z h.Z h.Z h.Y {.7.",
"    i.* J O N O N O N O N O N O N O N O N O N O N O N O M |.                              j.k.i.",
"    i.= J Y N N N N N N N N N N N N N N N N N N N N N N N O l.5.l.5.l.5.l.5.l.5.l.5.l.5.l.P {.i.",
"    m.* v Y K Y K Y N Y K Y N Y K Y K Y K Y N Y K Y N N K N K K K K K K K K K 6.K K K K L  ...m.",
"    m.= R e.n.o.p.o.o.o.q.p.q.p.<.o.r.o.@.o.o.o.q.o.p.g.@.@.p.q.q.@.q.o.@.p.r.p.p.p.p.@.l.~.Q m.",
"    > * R ` s.t.u.t.u.t.t.v.u.w.x.t.y.z.t.t.u.u.w.t.u.k A.B.A.s.v.B.t.t.z.u.B.C.A.w.D.y.8.~...> ",
"    > = R ` !.z x z x z x z x z y y y y x y x y x y x I G z x y x y x z x z x x x y x y G 8.{.> ",
"    E.* F.|.                                                                              G.k.E.",
"    E.= J M t q t s t s t s t s s q s q s q s q s q s q s q s q s q s q s q s q s q s q s H.Q E.",
"    E.* F.I.J.K.J.J.L.K.M.N.O.K.P.[.M N K N K N K N K N K N K N K N K N K N K N K N K N K P ..E.",
"    Q.= R S q.o.o.R.S.R.T.S.o.S.r.Z U.V.U.l.U.V.U.l.U.V.U.l.U.V.U.l.U.V.U.l.U.V.U.l.U.V.Z 6.{.Q.",
"    Q.* F.F     !.          !.  !.                                                        G.k.Q.",
"    W.= R S <.W F W F W :.W F W F W F W F W F W F W F W F W F W F W F W F W F W F W F W <.8.{.W.",
"    W.* E P r r r r r r r r r r r r r r r r r r r r r r r r r r r r r r r r r r r r r r r u ..W.",
"    X.= Y.Z.`.Z.`.Z.`.Z.`.Z.`.Z.`.Z.`.Z.`.Z.`.Z.`.Z.`.Z.`.Z.`.Z.`.Z.`.Z.`.Z.`.Z.`.Z.`.Z.`. +.+X.",
"    X.% 8 8 8 8 8 8 8 8 8 8 8 8 8 8 8 8 8 8 8 8 8 8 8 8 8 8 8 8 8 8 8 8 8 8 8 8 8 8 8 8 8 8 * X.",
"    X.; % & * & : & * & : & * & : & * & : & * & : & * & : & * & : & * & : & * & : & * & : : ++X.",
"    @+@+@+@+@+@+@+@+@+@+@+@+@+@+@+@+@+@+@+@+@+@+@+@+@+@+@+@+@+@+@+@+@+@+@+@+@+@+@+@+@+@+@+@+@+@+",
"    @+@+@+@+@+@+@+@+@+@+@+@+@+@+@+@+@+@+@+@+@+@+@+@+@+@+@+@+@+@+@+@+@+@+@+@+@+@+@+@+@+@+@+@+@+@+",
"    #+#+#+#+#+#+#+#+#+#+#+#+#+#+#+#+#+#+#+#+#+#+#+#+#+#+#+#+#+#+#+#+#+#+#+#+#+#+#+#+#+#+#+#+#+#+",
"    #+#+#+#+#+#+#+#+#+#+#+#+#+#+#+#+#+#+#+#+#+#+#+#+#+#+#+#+#+#+#+#+#+#+#+#+#+#+#+#+#+#+#+#+#+#+",
"    $+$+$+$+$+$+$+$+$+$+$+$+$+$+$+$+$+$+$+$+$+$+$+$+$+$+$+$+$+$+$+$+$+$+$+$+$+$+$+$+$+$+$+$+$+$+",
"    $+$+$+$+$+$+$+$+$+$+$+$+$+$+$+$+$+$+$+$+$+$+$+$+$+$+$+$+$+$+$+$+$+$+$+$+$+$+$+$+$+$+$+$+$+$+",
"    $+$+$+$+$+$+$+$+$+$+$+$+$+$+$+$+$+$+$+$+$+$+$+$+$+$+$+$+$+$+$+$+$+$+$+$+$+$+$+$+$+$+$+$+$+$+"};
