/* XPM */
static char * transactions_xpm[] = {
"48 48 108 2",
"  	c #FFFFFF",
". 	c #FAFAFA",
"+ 	c #F9F9F9",
"@ 	c #F8F8F8",
"# 	c #F7F7F7",
"$ 	c #FFB6BD",
"% 	c #FF656A",
"& 	c #FF797B",
"* 	c #FF7573",
"= 	c #FF757B",
"- 	c #FF5D5A",
"; 	c #FFEAEE",
"> 	c #F6F6F6",
", 	c #FF5D62",
"' 	c #FF0000",
") 	c #FFC2C5",
"! 	c #FFDADE",
"~ 	c #F6A1A4",
"{ 	c #FFB2B4",
"] 	c #FFAEB4",
"^ 	c #F6AEB4",
"/ 	c #EEAAAC",
"( 	c #F6AEAC",
"_ 	c #FFA1A4",
": 	c #FFF6F6",
"< 	c #F5F5F5",
"[ 	c #C5DEDE",
"} 	c #E6F6F6",
"| 	c #EEFFFF",
"1 	c #D5EAEE",
"2 	c #D5E6EE",
"3 	c #DEEAEE",
"4 	c #C5C2C5",
"5 	c #E6E2E6",
"6 	c #DEDEDE",
"7 	c #E6DEE6",
"8 	c #EEEAEE",
"9 	c #D5CED5",
"0 	c #EEE6EE",
"a 	c #D5D6D5",
"b 	c #F6EEF6",
"c 	c #DED6DE",
"d 	c #FFF6FF",
"e 	c #DEDADE",
"f 	c #E6E6E6",
"g 	c #F6F2F6",
"h 	c #F4F4F4",
"i 	c #CDCACD",
"j 	c #EEEEEE",
"k 	c #D5D2D5",
"l 	c #FFFAFF",
"m 	c #9C999C",
"n 	c #8B898B",
"o 	c #838583",
"p 	c #B4B2B4",
"q 	c #A4A5A4",
"r 	c #948D94",
"s 	c #7B797B",
"t 	c #8B8D8B",
"u 	c #949194",
"v 	c #949594",
"w 	c #737573",
"x 	c #B4AEB4",
"y 	c #BDBABD",
"z 	c #BDBEBD",
"A 	c #C5BEC5",
"B 	c #BDB6BD",
"C 	c #B4B6B4",
"D 	c #ACAAAC",
"E 	c #737173",
"F 	c #F3F3F3",
"G 	c #C5C6C5",
"H 	c #CDCECD",
"I 	c #CDC6CD",
"J 	c #ACA5AC",
"K 	c #F2F2F2",
"L 	c #9C959C",
"M 	c #ACAEAC",
"N 	c #7B7D7B",
"O 	c #A49DA4",
"P 	c #F1F1F1",
"Q 	c #F0F0F0",
"R 	c #EFEFEF",
"S 	c #A4A1A4",
"T 	c #EDEDED",
"U 	c #ECECEC",
"V 	c #CDD2D5",
"W 	c #EBEBEB",
"X 	c #F6FFFF",
"Y 	c #DEF6F6",
"Z 	c #DEF6FF",
"` 	c #E6FFFF",
" .	c #DEFAFF",
"..	c #E6FAFF",
"+.	c #FF8183",
"@.	c #FF3031",
"#.	c #FF3439",
"$.	c #FF3839",
"%.	c #FF3431",
"&.	c #FF3C39",
"*.	c #FF2829",
"=.	c #FFCECD",
"-.	c #EAEAEA",
";.	c #FF5052",
">.	c #FFBEC5",
",.	c #E9E9E9",
"'.	c #E8E8E8",
").	c #E7E7E7",
"                                                                                                ",
"                                                                                                ",
"    . . . . . . . . . . . . . . . . . . . . . . . . . . . . . . . . . . . . . . . . . . . . . . ",
"    . . . . . . . . . . . . . . . . . . . . . . . . . . . . . . . . . . . . . . . . . . . . . . ",
"    + + + + + + + + + + + + + + + + + + + + + + + + + + + + + + + + + + + + + + + + + + + + + + ",
"    + + + + + + + + + + + + + + + + + + + + + + + + + + + + + + + + + + + + + + + + + + + + + + ",
"    @ @ @ @ @ @ @ @ @ @ @ @ @ @ @ @ @ @ @ @ @ @ @ @ @ @ @ @ @ @ @ @ @ @ @ @ @ @ @ @ @ @ @ @ @ @ ",
"    @ @ @ @ @ @ @ @ @ @ @ @ @ @ @ @ @ @ @ @ @ @ @ @ @ @ @ @ @ @ @ @ @ @ @ @ @ @ @ @ @ @ @ @ @ @ ",
"    # # # # # # # # # # # # # # # # # # # # # # # # # # # # # # # # # # # # # # # # # # # # # # ",
"    # # # # # # # # # # # # # # # # # # # # # # # # # # # # # # # # # # # # # # # # # # # # # # ",
"    # $ % & * = * = * = * = * = * = * = * = * = * = * = * = * = * = * = * = * = * = * = * & - ; ",
"    > , ' ' ' ' ' ' ' ' ' ' ' ' ' ' ' ' ' ' ' ' ' ' ' ' ' ' ' ' ' ' ' ' ' ' ' ' ' ' ' ' ' ' ' ) ",
"    > ! ~ $ { ] ^ $ { { / ^ ( ] { { { { { { { { { { { { { { { { { { { { { { { { { { { { { $ _ : ",
"    <   [ } | 1 } | | 1 2 [ 1 3                                                                 ",
"    <   4 5 6 7 7 8 9 7 5 0 a 0 b 8 b 7 c d a b e 0 f d 6 c g 5 7 7 e g                         ",
"    h   i 8 0 6 5 j 5 8 e > k 5 b e g e 9 l c j c f 5 g e i j e 5 a e b                         ",
"    h b i 5 5 0 6 c 7 c 0 0 5 5 8 0 7 5 e 5 7 7 6 5 e 7 6 7 e 7 7 7 7 7 e 7 e 7 e 7 c e 5 0 5 d ",
"    h a m n n o p q r s t u v v s w x y z y A z y B y y y C 4 C B y y p C p C p C B D o n n E 8 ",
"    F l G k a k k e H 7 7 x 4 I c 5 z 5 I e 4 4 e 5 k c e b J 0 8 k 6 g 8 b j b j 8 k k 6 e f   ",
"    F   j k 7 6 c G e j 5 k 8 5 a f e j e j a 5 0 5 k c e i 6 j   g g             > k G c z G   ",
"    K                                                                                           ",
"    K   4 D A C i L 9 m e B B M D J 8     d N y i 4 B p H O D z                     7 z p 4     ",
"    P           g g b 0 5 l > d l f j 7 6                                             l >       ",
"    P         g H y 4 5 I e k H a a 8 i 4                                                       ",
"    P   f k 5 5 j k j a l c 5 5 c e l       y 5 5 0 e 6 0 9 e e                     b 5 5 5 l   ",
"    Q   0 9 5 6 j H b 4 b k 5 6 e i g l     y 6 5 5 e e 8 i e a                     b a k a l   ",
"    Q         l H A A c 4 e 9 k e i 6 k D                                               l       ",
"    R   l l   l > j g l g l g g l > l g 0   g     l   l   l l                                   ",
"    R   f y i 9 H B G D 5 S 9 i C x e       O y I e 4 i e x I y                     e x S D g   ",
"    j           g l g 8 e   g     f g 8 e                                                       ",
"    j         d i x y 9 i 7 x p i 4 c k J                                                       ",
"    T                                                     l     l     l           l   l         ",
"    T                                                     8 0 8 i 8 5 6 8 8 0 8 f i 0 6 e b     ",
"    T                                                     g i f 5 k k e e a k a l 6 e 6 a f     ",
"    U   > B f e 9 c e 7 6 c e l                           g i 5 j b a 8 5 k e 8   b 8 8 7 c l   ",
"    U   d C f a 9 a e 6 7 a e >                           8 4 y 9 e k e   H e e 0 V 6 j d g     ",
"    W                                                     X Y Z ` |  .|   ..` ..` ..|           ",
"    W +.@.#.$.%.$.#.$.%.$.#.$.%.$.#.$.%.$.#.$.%.$.#.$.%.$.$.&.$.&.$.$.$.$.$.$.%.$.$.$.%.$.#.*.=.",
"    -.;.' ' ' ' ' ' ' ' ' ' ' ' ' ' ' ' ' ' ' ' ' ' ' ' ' ' ' ' ' ' ' ' ' ' ' ' ' ' ' ' ' ' ' >.",
"    -.                                                                                          ",
"    -.-.-.-.-.-.-.-.-.-.-.-.-.-.-.-.-.-.-.-.-.-.-.-.-.-.-.-.-.-.-.-.-.-.-.-.-.-.-.-.-.-.-.-.-.-.",
"    ,.,.,.,.,.,.,.,.,.,.,.,.,.,.,.,.,.,.,.,.,.,.,.,.,.,.,.,.,.,.,.,.,.,.,.,.,.,.,.,.,.,.,.,.,.,.",
"    ,.,.,.,.,.,.,.,.,.,.,.,.,.,.,.,.,.,.,.,.,.,.,.,.,.,.,.,.,.,.,.,.,.,.,.,.,.,.,.,.,.,.,.,.,.,.",
"    '.'.'.'.'.'.'.'.'.'.'.'.'.'.'.'.'.'.'.'.'.'.'.'.'.'.'.'.'.'.'.'.'.'.'.'.'.'.'.'.'.'.'.'.'.'.",
"    '.'.'.'.'.'.'.'.'.'.'.'.'.'.'.'.'.'.'.'.'.'.'.'.'.'.'.'.'.'.'.'.'.'.'.'.'.'.'.'.'.'.'.'.'.'.",
"    ).).).).).).).).).).).).).).).).).).).).).).).).).).).).).).).).).).).).).).).).).).).).).).",
"    ).).).).).).).).).).).).).).).).).).).).).).).).).).).).).).).).).).).).).).).).).).).).).).",
"    ).).).).).).).).).).).).).).).).).).).).).).).).).).).).).).).).).).).).).).).).).).).).).)."};
